<svg width="18" height="18" viewBox="0 0 18 18" fill="none" xmlns="http://www.w3.org/2000/svg">
  <g clip-path="url(#clip0_0_2127)">
    <path d="M15.51 0.875329L15.4943 0.870079L13.458 0.19508C12.7547 -0.0384278 11.998 -0.0590397 11.283 0.13583L7.101 1.35008C6.58894 1.48578 6.04554 1.43802 5.565 1.21508L5.19 1.04108C4.62044 0.80421 4.00125 0.711498 3.3873 0.77116C2.77334 0.830821 2.18358 1.04101 1.67029 1.38311C1.157 1.72521 0.736017 2.18864 0.444663 2.73235C0.153308 3.27605 0.000575464 3.88323 0 4.50007L0 13.5563C0.0015762 14.3673 0.265344 15.1561 0.751943 15.8049C1.23854 16.4537 1.92188 16.9277 2.7 17.1563L4.85175 17.8313C5.21476 17.9442 5.59285 18.0011 5.973 18.0001C6.31186 18.0044 6.6495 17.9586 6.975 17.8643L11.325 16.6643C11.7225 16.5565 12.142 16.5599 12.5377 16.6741L14.295 17.1811C14.7362 17.2877 15.1958 17.2929 15.6392 17.1962C16.0827 17.0995 16.4984 16.9034 16.8551 16.6227C17.2118 16.3421 17.5002 15.9841 17.6985 15.5759C17.8968 15.1676 17.9999 14.7197 18 14.2658V4.40707C17.9989 3.6337 17.7591 2.87952 17.3135 2.24745C16.8679 1.61538 16.238 1.13621 15.51 0.875329ZM3.132 15.7193C2.66273 15.5836 2.25007 15.2995 1.95585 14.9096C1.66163 14.5196 1.50169 14.0448 1.5 13.5563V4.50007C1.49636 4.12858 1.58622 3.76215 1.76132 3.43449C1.93642 3.10683 2.19113 2.82849 2.502 2.62508C2.8719 2.37971 3.30612 2.24924 3.75 2.25008C4.03625 2.25016 4.31966 2.30674 4.584 2.41658C4.584 2.41658 5.14275 2.65583 5.24925 2.69408V16.3816L3.132 15.7193ZM6.75 16.3703V2.90933C7.00474 2.89581 7.2575 2.85687 7.5045 2.79308L11.25 1.70483V15.1501L6.75 16.3703ZM16.5 14.2658C16.5002 14.4905 16.4499 14.7123 16.3528 14.9149C16.2558 15.1175 16.1144 15.2957 15.9393 15.4364C15.7641 15.5771 15.5596 15.6766 15.3408 15.7277C15.122 15.7787 14.8946 15.78 14.6752 15.7313L12.75 15.1891V1.55633L15.0135 2.29058C15.4485 2.44819 15.8245 2.73584 16.0904 3.11447C16.3564 3.4931 16.4994 3.94439 16.5 4.40707V14.2658Z" fill="#84849A"/>
  </g>
  <defs>
    <clipPath id="clip0_0_2127">
      <rect width="18" height="18" fill="white"/>
    </clipPath>
  </defs>
</svg>
