<svg width="18" height="18" viewBox="0 0 18 18" fill="none" xmlns="http://www.w3.org/2000/svg">
  <path d="M9.00013 0.00488281C7.51622 0.00505031 6.0657 0.44541 4.83215 1.27024C3.59859 2.09506 2.63743 3.26728 2.07031 4.63855C1.5032 6.00981 1.3556 7.5185 1.64621 8.97368C1.93682 10.4289 2.65257 11.7651 3.70288 12.8134L9.00013 17.9944L14.3034 12.8074C15.352 11.7584 16.0661 10.4222 16.3553 8.96744C16.6445 7.51272 16.4959 6.00491 15.9283 4.63463C15.3607 3.26435 14.3995 2.09313 13.1664 1.26906C11.9332 0.444983 10.4833 0.00505121 9.00013 0.00488281ZM13.2489 11.7409L9.00013 15.8996L4.75738 11.7469C3.91856 10.908 3.34723 9.8393 3.11561 8.67582C2.88399 7.51234 3.00247 6.3063 3.45608 5.21014C3.90969 4.11398 4.67807 3.17688 5.66411 2.51728C6.65015 1.85769 7.80959 1.5052 8.9959 1.50436C10.1822 1.50352 11.3421 1.85437 12.3291 2.51257C13.3161 3.17078 14.0858 4.10678 14.5409 5.20231C14.9961 6.29783 15.1163 7.50369 14.8863 8.6675C14.6563 9.83131 14.0865 10.9008 13.2489 11.7409ZM12.0136 5.56688L10.1386 4.13438C9.81139 3.88554 9.41162 3.7508 9.00051 3.7508C8.5894 3.7508 8.18962 3.88554 7.86238 4.13438L5.98738 5.56688C5.75882 5.74229 5.57352 5.96777 5.44571 6.22598C5.31791 6.4842 5.251 6.76827 5.25013 7.05638V10.4996H12.7501V7.05638C12.7492 6.76835 12.6824 6.48436 12.5547 6.22616C12.4271 5.96797 12.242 5.74245 12.0136 5.56688ZM11.2501 8.99963H9.75013V7.49963H8.25013V8.99963H6.75013V7.05638C6.75013 6.99817 6.76369 6.94075 6.78972 6.88868C6.81576 6.83661 6.85356 6.79131 6.90013 6.75638L8.77513 5.32463C8.84058 5.27452 8.92071 5.24736 9.00313 5.24736C9.08556 5.24736 9.16569 5.27452 9.23113 5.32463L11.1061 6.75713C11.1527 6.79206 11.1905 6.83736 11.2165 6.88943C11.2426 6.9415 11.2561 6.99892 11.2561 7.05713L11.2501 8.99963Z" fill="#84849A"/>
</svg>
