<svg width="14" height="15" viewBox="0 0 14 15" fill="none" xmlns="http://www.w3.org/2000/svg">
  <path fill-rule="evenodd" clip-rule="evenodd" d="M5.68662 4.07471H10.1389C12.5294 4.07471 13.4292 5.16061 13.2902 6.75802C13.0615 9.39184 11.2859 10.849 8.93215 10.849H7.74381C7.42087 10.849 7.20365 11.0408 7.11631 11.5606L6.60604 14.5801C6.57271 14.776 6.45778 14.8915 6.28539 14.9049H3.49382C3.23064 14.9049 3.13754 14.7244 3.2065 14.3336L4.91201 4.64705C4.97982 4.2593 5.21542 4.07471 5.68662 4.07471Z" fill="#009EE3"/>
  <path fill-rule="evenodd" clip-rule="evenodd" d="M2.90056 0.741699H7.35743C8.61243 0.741699 10.1019 0.777793 11.0971 1.5667C11.7626 2.09367 12.112 2.93208 12.0315 3.83236C11.758 6.8859 9.72262 8.59675 6.99196 8.59675H4.79456C4.4199 8.59675 4.1728 8.8195 4.06707 9.42175L3.45336 12.9229C3.41314 13.1497 3.30395 13.2838 3.10398 13.3003H0.358378C0.0538216 13.3003 -0.0542097 13.091 0.0250899 12.6382L2.00183 1.40583C2.08113 0.9562 2.35581 0.741699 2.90056 0.741699Z" fill="#113984"/>
  <path fill-rule="evenodd" clip-rule="evenodd" d="M4.13184 9.06906L4.90989 4.64808C4.9777 4.26033 5.21445 4.07471 5.68565 4.07471H10.1379C10.8746 4.07471 11.4711 4.17783 11.9377 4.36861C11.4906 7.08699 9.5311 8.59674 6.96593 8.59674H4.76738C4.47777 8.59674 4.2617 8.72977 4.13184 9.06906Z" fill="#172C70"/>
</svg>
