<svg width="18" height="18" viewBox="0 0 18 18" fill="none" xmlns="http://www.w3.org/2000/svg">
  <g clip-path="url(#clip0_0_2184)">
    <path d="M6.13141 16.8351C7.70838 18.3778 10.227 18.3841 11.8117 16.8493L14.7981 14.0896C18.0332 10.8976 18.0681 5.68735 14.876 2.45228C11.684 -0.782802 6.4738 -0.817748 3.23872 2.3743C3.21256 2.4001 3.18655 2.42612 3.16074 2.45228C-0.0526425 5.66615 -0.0522206 10.8765 3.16166 14.0899C3.1683 14.0965 3.17498 14.1032 3.18166 14.1098L6.13141 16.8351ZM4.21853 3.51009C6.8421 0.874955 11.1051 0.865569 13.7402 3.48914C16.3754 6.11271 16.3848 10.3757 13.7612 13.0109L10.7808 15.7654C9.76281 16.7234 8.17311 16.7175 7.16226 15.7519L4.21853 13.0318C1.58919 10.4025 1.58915 6.1395 4.21846 3.51013C4.21849 3.51013 4.21853 3.51009 4.21853 3.51009ZM5.23894 8.27095C5.23894 7.8578 5.57387 7.52286 5.98703 7.52286H8.23129V5.27859C8.23129 4.86544 8.56623 4.5305 8.97939 4.5305C9.39254 4.5305 9.72748 4.86544 9.72748 5.27859V7.52286H11.9717C12.3849 7.52286 12.7198 7.8578 12.7198 8.27095C12.7198 8.68411 12.3849 9.01904 11.9717 9.01904H9.72748V11.2633C9.72748 11.6765 9.39254 12.0114 8.97939 12.0114C8.56623 12.0114 8.23129 11.6765 8.23129 11.2633V9.01904H5.98703C5.57387 9.01904 5.23894 8.68411 5.23894 8.27095Z" fill="#84849A"/>
  </g>
  <defs>
    <clipPath id="clip0_0_2184">
      <rect width="18" height="18" fill="white"/>
    </clipPath>
  </defs>
</svg>
