<svg width="56" height="27" viewBox="0 0 56 27" fill="none" xmlns="http://www.w3.org/2000/svg">
  <g clip-path="url(#clip0_0_2237)">
    <path d="M26.4604 13.7902V20.3002H24.3604V4.2002H29.8204C31.1504 4.2002 32.4104 4.6902 33.3904 5.6002C34.3704 6.4402 34.8604 7.7002 34.8604 9.03019C34.8604 10.3602 34.3704 11.5502 33.3904 12.4602C32.4104 13.3702 31.2204 13.8602 29.8204 13.8602L26.4604 13.7902ZM26.4604 6.1602V11.7602H29.9604C30.7304 11.7602 31.5004 11.4802 31.9904 10.9202C33.1104 9.8702 33.1104 8.1202 32.0604 7.0702L31.9904 7.0002C31.4304 6.4402 30.7304 6.0902 29.9604 6.1602H26.4604Z" fill="white"/>
    <path d="M39.6904 8.95996C41.2304 8.95996 42.4204 9.37996 43.3304 10.22C44.2404 11.06 44.6604 12.18 44.6604 13.58V20.3H42.7004V18.76H42.6304C41.7904 20.02 40.6004 20.65 39.2004 20.65C38.0104 20.65 36.9604 20.3 36.1204 19.6C35.3504 18.9 34.8604 17.92 34.8604 16.87C34.8604 15.75 35.2804 14.84 36.1204 14.14C36.9604 13.44 38.1504 13.16 39.5504 13.16C40.8104 13.16 41.7904 13.37 42.5604 13.86V13.37C42.5604 12.67 42.2804 11.97 41.7204 11.55C41.1604 11.06 40.4604 10.78 39.6904 10.78C38.5004 10.78 37.5904 11.27 36.9604 12.25L35.1404 11.13C36.2604 9.65996 37.7304 8.95996 39.6904 8.95996ZM37.0304 16.94C37.0304 17.5 37.3104 17.99 37.7304 18.27C38.2204 18.62 38.7804 18.83 39.3404 18.83C40.1804 18.83 41.0204 18.48 41.6504 17.85C42.3504 17.22 42.7004 16.45 42.7004 15.61C42.0704 15.12 41.1604 14.84 39.9704 14.84C39.1304 14.84 38.4304 15.05 37.8704 15.47C37.3104 15.82 37.0304 16.31 37.0304 16.94Z" fill="white"/>
    <path d="M55.9998 9.30957L49.0698 25.1996H46.9698L49.5598 19.6696L45.0098 9.37957H47.2498L50.5398 17.2896H50.6098L53.8298 9.37957H55.9998V9.30957Z" fill="white"/>
    <path d="M18.1302 12.39C18.1302 11.76 18.0602 11.13 17.9902 10.5H9.24023V14.07H14.2102C14.0002 15.19 13.3702 16.24 12.3902 16.87V19.18H15.4002C17.1502 17.57 18.1302 15.19 18.1302 12.39Z" fill="#4285F4"/>
    <path d="M9.24047 21.4197C11.7605 21.4197 13.8605 20.5797 15.4005 19.1797L12.3905 16.8697C11.5505 17.4297 10.5005 17.7797 9.24047 17.7797C6.86047 17.7797 4.76047 16.1697 4.06047 13.9297H0.980469V16.3097C2.59047 19.4597 5.74047 21.4197 9.24047 21.4197Z" fill="#34A853"/>
    <path d="M4.05992 13.9295C3.63992 12.8095 3.63992 11.5495 4.05992 10.3595V7.97949H0.979922C-0.350078 10.5695 -0.350078 13.6495 0.979922 16.3095L4.05992 13.9295Z" fill="#FBBC04"/>
    <path d="M9.2398 6.58029C10.5698 6.58029 11.8298 7.07029 12.8098 7.98029L15.4698 5.32029C13.7898 3.78029 11.5498 2.87029 9.3098 2.94029C5.8098 2.94029 2.5898 4.90029 1.0498 8.05029L4.1298 10.4303C4.7598 8.19029 6.8598 6.58029 9.2398 6.58029Z" fill="#EA4335"/>
  </g>
  <defs>
    <clipPath id="clip0_0_2237">
      <rect width="56" height="26.67" fill="white"/>
    </clipPath>
  </defs>
</svg>
