<svg width="211" height="211" viewBox="0 0 211 211" fill="none" xmlns="http://www.w3.org/2000/svg">
  <path d="M51.0301 157.153C73.0679 179.262 66.7764 193.137 81.8515 203.369C105.048 219.113 148.3 205.512 173.806 183.805C205.045 157.218 221.131 108.711 202.717 64.8577C183.107 18.1555 131.6 -6.05148 85.6656 1.29866C44.6467 7.86251 4.3474 40.1852 0.341265 78.9142C-0.0932603 83.1123 -2.00609 105.803 11.5722 125.353C22.7963 141.511 33.5606 139.627 51.0301 157.153Z" fill="#CADDFF"/>
  <path d="M98.6027 193.216C95.6173 189.923 112.59 181.99 111.22 169.587C109.967 158.254 94.8931 156.691 94.3793 146.252C93.8298 135.082 110.819 131.335 109.791 119.991C108.999 111.249 98.6728 110.864 96.991 101.589C94.9701 90.4455 109.266 87.6338 112.602 72.3702C115.717 58.1148 105.037 52.3775 111.384 40.735C112.211 39.2187 117.395 30.1408 125.84 29.2442C139.578 27.7843 159.367 48.2472 158.496 67.5951C157.762 83.8863 142.93 87.1981 143.613 104.371C144.191 118.926 154.999 120.384 152.581 131.937C149.72 145.608 133.628 148.133 131.667 163.426C130.639 171.436 134.73 173.269 132.045 179.113C126.372 191.456 101.894 196.848 98.6027 193.216Z" fill="#99B9FF"/>
  <path d="M103.98 190.751C103.83 190.751 103.688 190.663 103.627 190.516C103.546 190.322 103.639 190.098 103.834 190.018C113.968 185.835 120.118 180.725 122.112 174.832C123.594 170.454 122.195 167.086 120.714 163.52C119.13 159.705 117.491 155.758 118.827 150.099C120.234 144.133 123.44 141.244 126.54 138.45C129.379 135.892 132.058 133.477 132.903 128.836C134.097 122.274 130.446 118.133 126.581 113.749C122.792 109.452 118.874 105.009 119.618 98.0689C120.216 92.4867 123.441 89.0278 126.855 85.3654C130.565 81.3868 134.4 77.2738 135.767 69.8903C136.786 64.3829 136.101 58.6444 133.731 52.8335C133.651 52.638 133.744 52.4162 133.94 52.3369C134.135 52.2564 134.357 52.3507 134.436 52.5461C136.863 58.4938 137.563 64.376 136.516 70.0294C135.109 77.6313 131.02 82.0168 127.413 85.8861C124.087 89.4531 120.947 92.8213 120.375 98.1505C119.667 104.757 123.472 109.072 127.152 113.245C130.967 117.572 134.914 122.047 133.653 128.973C132.762 133.87 129.987 136.369 127.05 139.017C124.037 141.732 120.92 144.54 119.567 150.275C118.289 155.694 119.879 159.524 121.418 163.228C122.955 166.931 124.407 170.428 122.833 175.076C120.764 181.188 114.469 186.452 104.123 190.724C104.077 190.742 104.028 190.751 103.98 190.751Z" fill="#CADDFF"/>
  <path d="M105.21 207.33C104.091 205.304 115.557 201.073 124.079 185.297C129.24 175.744 130.738 166.74 132.073 158.293C135.377 137.394 130.77 133.778 135.385 123.772C140.925 111.762 149.626 115.396 157.921 102.791C168.152 87.2462 158.441 76.3601 169.092 62.2288C174.911 54.5074 185.83 47.1159 196.234 49.4437C202.53 50.853 209.444 56.0041 210.181 62.23C210.892 68.2397 205.319 70.7768 201.486 78.5235C194.639 92.3559 204.948 99.3278 201.035 113.072C195.724 131.723 173.547 130.085 166.17 152.407C163.198 161.397 166.549 162.41 163.968 170.972C155.259 199.866 107.423 211.338 105.21 207.33Z" fill="#99B9FF"/>
  <path d="M113.551 205.682C113.415 205.682 113.282 205.608 113.214 205.479C113.116 205.293 113.187 205.062 113.372 204.963C130.007 196.128 139.964 185.614 142.967 173.715C144.374 168.135 144.12 162.962 143.875 157.96C143.498 150.29 143.143 143.047 148.597 135.129C152.437 129.556 156.926 126.999 160.887 124.745C165.539 122.096 169.557 119.809 171.995 113.551C173.695 109.187 173.436 105.956 173.109 101.865C172.789 97.8665 172.426 93.335 173.793 86.4884C175.143 79.7234 177.709 73.1676 181.419 67.0037C181.527 66.8233 181.761 66.7646 181.942 66.8738C182.122 66.9819 182.181 67.2164 182.072 67.3969C178.407 73.4848 175.873 79.959 174.54 86.6378C173.194 93.381 173.553 97.855 173.869 101.804C174.191 105.826 174.469 109.301 172.705 113.828C170.169 120.338 165.844 122.8 161.264 125.407C157.184 127.73 152.965 130.132 149.225 135.561C143.916 143.266 144.266 150.385 144.636 157.922C144.884 162.98 145.141 168.211 143.706 173.901C142.333 179.341 139.545 184.523 135.414 189.306C130.321 195.206 123.025 200.699 113.731 205.637C113.672 205.667 113.611 205.682 113.551 205.682Z" fill="#CADDFF"/>
  <path d="M33.3908 210.618H131.561C135.792 210.618 138.788 207.199 138.255 202.983L114.081 12.0184C113.548 7.80194 109.686 4.38322 105.455 4.38322L12.2117 3.29346C1.50838 3.29346 0.056522 7.80079 0.589907 12.0184L24.7635 202.983C25.298 207.199 29.1593 210.618 33.3908 210.618Z" fill="black"/>
  <path d="M39.2971 210.618H137.467C141.698 210.618 144.695 207.189 144.161 202.959L119.989 11.3864C119.455 7.15612 115.593 3.72705 111.363 3.72705H13.1922C8.96194 3.72705 5.9651 7.15612 6.49848 11.3864L30.6709 202.959C31.2055 207.189 35.0668 210.618 39.2971 210.618Z" fill="#99B9FF"/>
  <path d="M138.568 203.223L115.488 20.3036C115.365 19.3265 114.473 18.5356 113.497 18.5356H14.7974C13.8203 18.5356 13.1295 19.3277 13.2525 20.3036L36.3329 203.223C36.4559 204.2 37.3479 204.991 38.3239 204.991H137.023C137.999 204.992 138.691 204.2 138.568 203.223Z" fill="#CADDFF"/>
  <path d="M137.023 205.372H38.324C37.163 205.372 36.1008 204.429 35.9537 203.269L12.8733 20.3517C12.7997 19.7666 12.9618 19.2148 13.3297 18.7964C13.6952 18.3826 14.216 18.1538 14.7965 18.1538H113.496C114.656 18.1538 115.719 19.0964 115.865 20.2563L138.946 203.175C139.02 203.76 138.858 204.313 138.489 204.731C138.125 205.144 137.604 205.372 137.023 205.372ZM14.7965 18.9171C14.4378 18.9171 14.1205 19.0539 13.9021 19.301C13.6803 19.5528 13.5837 19.8919 13.6297 20.2563L36.7101 203.175C36.8101 203.966 37.5332 204.61 38.3229 204.61H137.022C137.381 204.61 137.699 204.473 137.916 204.226C138.138 203.974 138.235 203.635 138.189 203.271L115.108 20.3517C115.008 19.5608 114.285 18.9171 113.496 18.9171H14.7965Z" fill="#5479F7"/>
  <path d="M63.5059 13.469C65.0911 13.469 66.2131 12.1838 66.013 10.5997C65.813 9.0145 64.3658 7.73047 62.7817 7.73047C61.1965 7.73047 60.0745 9.01565 60.2745 10.5997C60.4746 12.1849 61.9218 13.469 63.5059 13.469Z" fill="#CADDFF"/>
  <path d="M129.346 85.9249C129.156 85.9249 128.992 85.7847 128.968 85.5915L126.132 63.1192C126.106 62.91 126.254 62.7192 126.463 62.6928C126.672 62.6675 126.863 62.8146 126.889 63.0238L129.725 85.4961C129.752 85.7053 129.604 85.8962 129.394 85.9226C129.378 85.9238 129.362 85.9249 129.346 85.9249Z" fill="black"/>
  <path d="M137.468 211H39.2967C34.887 211 30.8476 207.414 30.2923 203.006L6.11989 11.4343C5.8463 9.2663 6.43946 7.22932 7.79131 5.69699C9.12823 4.18075 11.0457 3.34619 13.1918 3.34619H111.363C115.772 3.34619 119.811 6.9316 120.368 11.3401L121.736 22.1791C121.762 22.3883 121.614 22.5791 121.405 22.6055C121.197 22.632 121.005 22.4837 120.978 22.2745L119.61 11.4355C119.1 7.39601 115.401 4.10948 111.362 4.10948H13.1918C11.2687 4.10948 9.55356 4.85323 8.36379 6.20279C7.15907 7.56844 6.63143 9.39276 6.87743 11.3401L31.0499 202.913C31.5591 206.952 35.2595 210.239 39.2978 210.239H137.469C139.393 210.239 141.108 209.495 142.297 208.145C143.502 206.78 144.03 204.954 143.784 203.007L137.85 155.979C137.823 155.77 137.972 155.579 138.181 155.553C138.39 155.529 138.581 155.675 138.607 155.884L144.541 202.912C144.815 205.08 144.222 207.117 142.87 208.65C141.532 210.165 139.613 211 137.468 211Z" fill="black"/>
  <path d="M115.355 23.7639C120.312 23.9639 125.059 29.1943 123.205 36.3214C121.692 42.1438 115.217 42.8186 111.802 45.4568C100.753 53.9921 94.5222 84.6985 78.9012 91.4221C66.4379 96.787 42.3631 92.3843 33.0094 76.7115C24.1142 61.8089 25.0281 42.0081 38.2122 34.75C50.0639 28.2252 58.3911 43.1094 70.8349 37.2261C83.1027 31.4255 83.7016 25.379 90.861 22.7017C98.5456 19.829 101.306 23.1983 115.355 23.7639Z" fill="black"/>
  <path d="M113.68 162.24C115.359 161.854 123.602 159.999 132.13 156.07C138.159 153.293 145.096 148.034 146.589 147.897C147.79 147.786 149.175 147.79 150.848 147.936C155.423 148.334 158.914 149.73 168.861 141.375C180.152 131.892 159.863 138.327 159.863 138.327C159.863 138.327 163.042 134.766 163.369 133.596C163.754 132.216 163.096 131.262 160.091 133.168C155.321 136.192 156.478 137.135 152.047 138.977C150.235 139.732 138.198 143.749 126.663 144.309C116.134 144.821 106.853 143.208 106.853 143.208C106.853 143.208 102.797 164.733 113.68 162.24Z" fill="white"/>
  <path d="M112.024 162.821C110.618 162.821 109.429 162.36 108.475 161.443C103.917 157.059 106.371 143.702 106.478 143.136C106.516 142.932 106.714 142.795 106.918 142.832C107.01 142.848 116.285 144.432 126.644 143.927C138.194 143.366 150.177 139.342 151.901 138.624C154.269 137.639 154.968 136.946 155.935 135.986C156.723 135.203 157.706 134.227 159.888 132.844C161.611 131.752 162.763 131.456 163.41 131.937C163.847 132.262 163.963 132.887 163.737 133.699C163.499 134.55 162.004 136.411 161.012 137.584C162.113 137.266 163.8 136.805 165.522 136.436C171.04 135.253 172.16 135.992 172.524 136.652C173.074 137.653 171.989 139.246 169.108 141.667C159.997 149.321 156.166 148.898 152.11 148.448C151.685 148.401 151.256 148.354 150.817 148.315C149.223 148.176 147.852 148.163 146.626 148.276C146.013 148.332 143.93 149.64 141.725 151.027C138.954 152.768 135.504 154.936 132.292 156.416C128.446 158.187 122.126 160.698 113.851 162.592L113.767 162.612C113.152 162.751 112.572 162.821 112.024 162.821ZM113.68 162.239H113.682H113.68ZM107.164 143.643C106.801 145.832 105.14 157.178 109.004 160.893C110.149 161.994 111.651 162.313 113.595 161.867L113.679 161.847C121.889 159.968 128.157 157.479 131.97 155.722C135.137 154.264 138.564 152.111 141.317 150.381C144.237 148.546 145.795 147.586 146.553 147.516C147.825 147.4 149.241 147.412 150.88 147.555C151.325 147.594 151.76 147.641 152.192 147.69C156.081 148.119 159.755 148.526 168.616 141.083C172.09 138.166 171.973 137.236 171.855 137.02C171.178 135.788 164.502 137.255 159.979 138.69C159.816 138.742 159.636 138.678 159.543 138.533C159.45 138.39 159.464 138.2 159.579 138.072C160.833 136.668 162.78 134.288 163.002 133.494C163.132 133.029 163.114 132.669 162.955 132.55C162.864 132.482 162.311 132.212 160.295 133.489C158.183 134.829 157.273 135.731 156.47 136.528C155.481 137.51 154.699 138.286 152.193 139.329C150.449 140.054 138.339 144.124 126.681 144.689C117.414 145.14 109.014 143.934 107.164 143.643Z" fill="black"/>
  <path d="M45.1772 104.801C42.4965 111.53 38.357 125.179 36.4453 131.617C35.8993 133.456 37.1339 135.345 39.0375 135.583L61.5466 138.399C61.5466 138.399 69.6991 162.713 42.1597 204.546C42.1585 204.547 42.093 204.99 42.093 204.99L124.289 204.821L124.601 204.548C124.601 204.548 122.755 182.259 122.755 175.69C122.755 167.915 121.788 152.53 123.565 142.754C125.342 132.978 134.673 129.647 134.673 129.647C134.673 129.647 135.612 102.149 129.119 95.4344C113.147 78.9156 57.6508 73.4874 45.1772 104.801Z" fill="#5479F7"/>
  <path d="M124.679 204.248C124.484 204.248 124.317 204.099 124.3 203.9C124.28 203.682 122.373 181.976 122.373 175.69C122.373 173.893 122.323 171.734 122.264 169.232C122.076 161.214 121.818 150.234 123.191 142.685C124.823 133.706 132.792 130.008 134.3 129.384C134.371 126.621 134.827 101.884 128.845 95.6976C124.168 90.8604 115.729 86.7807 105.694 84.5046C95.2603 82.1388 84.1823 81.8871 74.4997 83.7965C64.3275 85.8024 51.0446 91.0995 45.5314 104.941C42.7874 111.829 38.4617 126.156 36.7305 131.997C36.5271 132.683 36.642 133.416 37.0455 134.007C37.449 134.599 38.0916 134.973 38.8055 135.034L61.2352 136.933C61.387 136.945 61.5168 137.048 61.5651 137.191C61.6513 137.45 63.6688 143.655 62.4181 155.018C61.2674 165.471 56.9819 182.419 43.1036 203.798C42.9886 203.975 42.753 204.025 42.5759 203.91C42.3989 203.795 42.3495 203.56 42.4633 203.383C56.2405 182.159 60.503 165.355 61.6525 154.994C62.7629 144.992 61.264 138.912 60.9122 137.67L38.7411 135.792C37.7973 135.712 36.9489 135.218 36.4156 134.436C35.8822 133.654 35.7304 132.685 35.9994 131.778C37.7341 125.928 42.0678 111.575 44.8233 104.658C50.4641 90.4983 63.9953 85.0908 74.3526 83.0481C84.1374 81.118 95.3282 81.3709 105.863 83.7597C116.039 86.068 124.616 90.2258 129.394 95.1665C135.924 101.92 135.093 128.528 135.055 129.657C135.049 129.814 134.949 129.95 134.802 130.003C134.711 130.037 125.656 133.384 123.941 142.821C122.583 150.293 122.84 161.228 123.027 169.213C123.086 171.718 123.137 173.882 123.137 175.688C123.137 181.942 125.041 203.613 125.061 203.831C125.079 204.04 124.924 204.227 124.715 204.245C124.701 204.248 124.691 204.248 124.679 204.248Z" fill="black"/>
  <path d="M63.8675 129.841C63.787 129.841 63.7054 129.816 63.6364 129.763C60.3913 127.281 48.7672 122.503 41.8136 126.445C41.6308 126.55 41.3975 126.485 41.294 126.302C41.1906 126.119 41.2549 125.886 41.4377 125.782C48.6947 121.666 60.7453 126.59 64.0997 129.157C64.2675 129.285 64.2985 129.524 64.1709 129.692C64.0951 129.789 63.9824 129.841 63.8675 129.841Z" fill="black"/>
  <path d="M161.727 138.163L140.869 128.314L141.102 88.8823L165.906 99.7995L161.727 138.163Z" fill="white"/>
  <path d="M106.387 138.616L148.522 127.424L141.102 88.8823L106.387 99.7167V138.616Z" fill="white"/>
  <path d="M131.27 149.183L165.679 138.471L165.906 99.7998L131.496 110.51L131.27 149.183Z" fill="#CADDFF"/>
  <path d="M131.27 149.564C131.189 149.564 131.109 149.539 131.043 149.489C130.946 149.417 130.888 149.302 130.889 149.181L131.116 110.509C131.117 110.343 131.225 110.196 131.383 110.146L165.793 99.435C165.909 99.3994 166.035 99.4201 166.133 99.4925C166.231 99.5649 166.288 99.6799 166.287 99.8006L166.06 138.472C166.059 138.638 165.951 138.785 165.793 138.834L131.383 149.546C131.347 149.558 131.308 149.564 131.27 149.564ZM131.875 110.791L131.654 148.663L165.298 138.189L165.52 100.318L131.875 110.791Z" fill="black"/>
  <path d="M131.469 149.183L106.08 138.943V100.043L131.469 110.284V149.183Z" fill="#99B9FF"/>
  <path d="M131.469 149.564C131.421 149.564 131.372 149.555 131.326 149.537L105.938 139.297C105.794 139.238 105.699 139.099 105.699 138.943V100.045C105.699 99.9182 105.762 99.7998 105.867 99.7286C105.971 99.6573 106.105 99.6435 106.223 99.6906L131.612 109.931C131.755 109.989 131.851 110.13 131.851 110.285V149.184C131.851 149.31 131.787 149.429 131.683 149.5C131.618 149.541 131.544 149.564 131.469 149.564ZM106.462 138.685L131.089 148.618V110.542L106.462 100.609V138.685Z" fill="black"/>
  <path d="M106.08 100.425C105.918 100.425 105.769 100.321 105.717 100.159C105.653 99.9594 105.764 99.7444 105.964 99.68L140.986 88.5192C141.074 88.4905 141.17 88.4962 141.255 88.533L166.058 99.449C166.252 99.5341 166.339 99.7594 166.254 99.9513C166.169 100.143 165.945 100.231 165.752 100.147L141.08 89.2882L106.195 100.405C106.157 100.419 106.118 100.425 106.08 100.425Z" fill="black"/>
  <path d="M145.546 106.521L145.567 114.197L152.608 112.119L152.587 104.357L145.546 106.521Z" fill="#99B9FF"/>
  <path d="M145.45 105.757L141.314 103.276L147.486 101.113L152.258 103.658L145.45 105.757Z" fill="#99B9FF"/>
  <path d="M98.2696 45.0027C100.397 46.066 100.117 48.3628 101.804 48.7629C102.387 48.9008 109.593 47.8547 114.384 37.8629C114.947 36.687 117.837 37.3353 119.25 41.3587C120.483 44.8682 119.387 47.0202 123.358 51.5263C123.739 51.9586 123.43 52.6667 122.975 53.0196L120.565 55.1094C120.056 55.506 119.637 56.8188 119.587 57.4625C119.427 59.4524 119.238 63.6654 118.568 64.2391C116.343 66.1461 110.488 65.0357 110.488 65.0357L104.985 83.3823C104.574 85.9711 107.99 87.2654 107.99 87.2654C110.19 88.1529 102.57 91.1762 92.2748 90.6807C86.8547 90.4198 82.6704 88.5587 80.4863 87.3493C79.7 86.9137 79.639 85.8113 80.3713 85.2917C81.0909 84.7813 82.0071 84.0766 83.006 83.1731C88.8871 77.8634 94.7716 69.0418 96.3648 56.3946C96.6143 54.4151 93.2185 54.2542 92.9461 50.5607C92.6622 46.7098 96.1142 43.9256 98.2696 45.0027Z" fill="white"/>
  <path d="M94.485 91.114C93.7528 91.114 93.0079 91.0968 92.2549 91.0611C86.6774 90.7921 82.3712 88.8287 80.2998 87.6826C79.8158 87.4148 79.5077 86.9251 79.4767 86.3733C79.4457 85.8215 79.6974 85.3008 80.1492 84.9801C81.0332 84.3536 81.908 83.65 82.7494 82.8902C86.9188 79.1266 94.1816 70.6729 95.9852 56.3474C96.0657 55.7048 95.6426 55.3059 94.8874 54.6576C93.9252 53.8311 92.7285 52.8034 92.5642 50.5894C92.4032 48.4041 93.4102 46.2464 95.1299 45.0946C96.2634 44.3359 97.4692 44.1784 98.4383 44.6624C99.6246 45.2555 100.14 46.2142 100.553 46.9833C100.929 47.6822 101.226 48.2351 101.892 48.3926C101.942 48.3949 109.132 47.9328 114.039 37.6985C114.278 37.2007 114.819 36.9225 115.469 36.9605C116.808 37.034 118.607 38.3836 119.608 41.2321C120.001 42.3529 120.163 43.3335 120.321 44.2819C120.658 46.3211 120.976 48.2478 123.643 51.2733C123.844 51.501 123.934 51.7929 123.904 52.116C123.863 52.5574 123.596 53.0183 123.209 53.3207L120.813 55.3979C120.412 55.7106 120.012 56.9026 119.965 57.4935C119.942 57.7866 119.917 58.128 119.891 58.4982C119.636 62.1043 119.399 64.0275 118.815 64.5287C116.771 66.2806 112.069 65.6793 110.754 65.4678L105.356 83.4661C105.023 85.7066 108.092 86.8963 108.123 86.9078C108.792 87.178 108.773 87.624 108.734 87.8033C108.417 89.2471 102.127 91.114 94.485 91.114ZM97.2416 45.1486C96.7094 45.1486 96.1266 45.344 95.5553 45.7268C94.4195 46.4878 93.1539 48.2029 93.3263 50.5319C93.4665 52.4298 94.4862 53.3057 95.3851 54.0782C96.153 54.7381 96.8784 55.3611 96.7427 56.4417C94.9081 71.012 87.5085 79.6209 83.261 83.4558C82.3965 84.2363 81.4987 84.9582 80.5906 85.602C80.3503 85.7721 80.2227 86.0376 80.2388 86.3296C80.2549 86.6228 80.4124 86.8722 80.6699 87.0147C82.6827 88.1286 86.8682 90.038 92.2917 90.299C97.506 90.5507 101.503 89.8713 103.42 89.4449C106.495 88.7609 107.784 87.9827 107.969 87.6815C107.945 87.6654 107.907 87.6435 107.845 87.6183C107.701 87.5642 104.151 86.1848 104.607 83.3224C104.609 83.3052 104.614 83.2891 104.618 83.273L110.121 64.9264C110.177 64.739 110.367 64.6252 110.557 64.6609C110.613 64.6712 116.257 65.7161 118.317 63.9493C118.767 63.5619 119.021 59.9753 119.129 58.4442C119.155 58.0706 119.179 57.7269 119.204 57.4326C119.258 56.7635 119.679 55.314 120.329 54.8093L122.725 52.7321C122.957 52.5505 123.123 52.2734 123.144 52.0458C123.16 51.8803 123.092 51.8044 123.071 51.7791C120.259 48.5892 119.923 46.558 119.568 44.4072C119.416 43.491 119.26 42.5438 118.889 41.4862C118.009 38.9825 116.478 37.7801 115.427 37.7226C115.225 37.7111 114.866 37.7364 114.726 38.0284C109.905 48.0834 102.535 49.3329 101.714 49.1352C100.716 48.8984 100.291 48.1087 99.881 47.3442C99.4809 46.5993 99.0671 45.8291 98.0969 45.344C97.8371 45.213 97.5474 45.1486 97.2416 45.1486Z" fill="black"/>
  <path d="M110.487 65.416C110.468 65.416 110.447 65.4149 110.426 65.4114C108.308 65.07 106.632 64.2711 105.445 63.0353C105.299 62.8836 105.304 62.6422 105.456 62.4962C105.607 62.3502 105.849 62.3548 105.995 62.5065C107.064 63.6193 108.596 64.3423 110.547 64.6573C110.755 64.6907 110.897 64.8861 110.862 65.0942C110.833 65.2827 110.671 65.416 110.487 65.416Z" fill="black"/>
  <path d="M103.476 150.838C93.699 156.42 65.241 175.623 44.731 171.781C40.3041 170.953 38.1568 161.309 37.9579 153.452C37.8487 149.164 39.6305 137.854 40.2099 133.302C40.672 129.67 44.9804 129.726 44.9804 129.726C55.762 129.405 58.799 132.09 59.9175 133.224C59.9175 133.224 61.4096 134.639 61.0866 137.49C60.8567 139.52 60.1348 142.533 59.8543 145.75C59.7853 146.54 59.7968 147.228 59.8693 147.829C60.1796 150.403 62.7109 152.099 65.2215 151.445C71.3002 149.861 108.762 139.809 108.828 139.794C110.814 139.346 112.786 138.315 115.66 137.97C117.855 137.707 126.654 138.152 126.875 138.94C127.193 140.075 126.465 140.59 125.061 141.153C123.67 141.711 118.33 142.187 118.33 142.187C118.79 142.858 126.006 146.449 129.72 146.495C132.098 146.525 137.201 147.753 135.706 150.015C133.793 152.913 124.677 154.596 119.467 154.094C116.538 153.811 111.733 151.821 107.506 150.098C105.925 149.452 103.476 150.838 103.476 150.838Z" fill="white"/>
  <path d="M50.3669 172.661C48.4115 172.661 46.5033 172.501 44.6594 172.156C40.0969 171.301 37.7886 161.867 37.5748 153.461C37.4886 150.089 38.5381 142.582 39.3049 137.101C39.5187 135.575 39.7026 134.256 39.8302 133.254C40.3303 129.329 44.9353 129.353 44.9847 129.344C56.287 129.006 59.224 131.979 60.1885 132.955C60.246 133.01 61.8059 134.526 61.4656 137.531C61.3725 138.354 61.2047 139.308 61.0093 140.412C60.7242 142.031 60.4012 143.867 60.2333 145.781C60.1701 146.508 60.1747 147.18 60.2471 147.781C60.3805 148.89 60.9897 149.887 61.9163 150.518C62.8554 151.158 64.0245 151.36 65.1235 151.074C69.986 149.806 95.2471 143.036 104.756 140.488C108.612 139.454 108.724 139.424 108.743 139.421C109.465 139.258 110.194 139.013 110.968 138.753C112.282 138.312 113.772 137.812 115.612 137.59C116.722 137.456 119.422 137.493 122.032 137.678C127.015 138.03 127.161 138.554 127.24 138.836C127.671 140.372 126.468 140.997 125.201 141.505C124.141 141.93 121.001 142.297 119.368 142.466C121.34 143.611 126.739 146.074 129.723 146.111C131.543 146.134 135.303 146.857 136.171 148.494C136.373 148.876 136.511 149.484 136.023 150.222C133.951 153.359 124.528 154.961 119.43 154.469C116.541 154.19 111.885 152.292 107.777 150.617L107.361 150.447C105.984 149.886 103.723 151.135 103.663 151.168C102.525 151.817 101.135 152.651 99.5257 153.616C88.843 160.026 67.7789 172.661 50.3669 172.661ZM44.9744 130.106C44.6514 130.106 40.9912 130.173 40.5866 133.349C40.459 134.356 40.2739 135.677 40.0601 137.206C39.298 142.66 38.253 150.131 38.3381 153.441C38.5508 161.806 40.8383 170.663 44.8008 171.404C46.5998 171.741 48.469 171.898 50.3807 171.898C67.5674 171.899 88.5142 159.333 99.1348 152.962C100.749 151.994 102.142 151.159 103.287 150.505C103.287 150.505 103.288 150.505 103.288 150.504C103.395 150.444 105.918 149.034 107.651 149.74L108.067 149.91C112.126 151.566 116.727 153.442 119.505 153.71C124.965 154.236 133.649 152.436 135.389 149.801C135.695 149.339 135.598 149.038 135.499 148.851C134.88 147.68 131.66 146.897 129.717 146.872C126.103 146.827 118.626 143.286 118.018 142.397C117.941 142.286 117.93 142.142 117.988 142.019C118.046 141.896 118.164 141.813 118.3 141.802C118.353 141.797 123.599 141.324 124.922 140.795C126.471 140.174 126.693 139.762 126.529 139.107C125.659 138.541 117.968 138.072 115.709 138.344C113.945 138.555 112.496 139.043 111.216 139.473C110.424 139.739 109.675 139.991 108.915 140.162C108.869 140.174 107.314 140.591 104.958 141.222C95.4482 143.771 70.186 150.541 65.32 151.809C64.0073 152.152 62.6117 151.909 61.4909 151.146C60.3816 150.391 59.654 149.197 59.4942 147.87C59.4149 147.217 59.4103 146.492 59.4781 145.712C59.6482 143.765 59.9747 141.912 60.2621 140.277C60.454 139.185 60.6207 138.243 60.7115 137.443C61.007 134.834 59.7126 133.549 59.6574 133.495C58.7435 132.57 55.9846 129.776 44.9951 130.103C44.987 130.106 44.9813 130.106 44.9744 130.106Z" fill="black"/>
  <path d="M177.076 71.5386C184.94 63.6745 184.94 50.9242 177.076 43.06C169.212 35.1959 156.461 35.1959 148.597 43.06C140.733 50.9242 140.733 63.6745 148.597 71.5386C156.461 79.4027 169.212 79.4027 177.076 71.5386Z" fill="white"/>
  <path d="M162.838 37.9228C173.522 37.9228 182.213 46.6144 182.213 57.2971C182.213 67.9809 173.521 76.6714 162.838 76.6714C152.156 76.6714 143.464 67.9797 143.464 57.2971C143.464 46.6144 152.156 37.9228 162.838 37.9228ZM162.838 37.1606C151.716 37.1606 142.701 46.1765 142.701 57.2982C142.701 68.42 151.716 77.4358 162.838 77.4358C173.96 77.4358 182.976 68.42 182.976 57.2982C182.976 46.1765 173.96 37.1606 162.838 37.1606Z" fill="black"/>
  <path d="M161.737 71.2174C160.851 71.2174 160.03 70.7495 159.58 69.9851L151.181 55.7446C150.478 54.5526 150.874 53.0168 152.066 52.3144C153.258 51.6109 154.794 52.0075 155.496 53.1995L161.658 63.6454L171.052 46.5C171.716 45.2861 173.24 44.8413 174.453 45.5068C175.667 46.1713 176.111 47.6944 175.447 48.9083L163.935 69.9173C163.502 70.707 162.679 71.2047 161.778 71.2185C161.764 71.2174 161.75 71.2174 161.737 71.2174Z" fill="#5479F7"/>
  <path d="M193.203 37.1041C193.144 37.1041 193.085 37.0903 193.028 37.0616C192.841 36.965 192.768 36.7351 192.865 36.5477L193.772 34.7958C193.869 34.6084 194.1 34.536 194.286 34.6326C194.473 34.7291 194.546 34.9591 194.449 35.1464L193.542 36.8983C193.473 37.0294 193.34 37.1041 193.203 37.1041Z" fill="black"/>
  <path d="M191.092 41.1851C191.033 41.1851 190.974 41.1713 190.917 41.1426C190.73 41.046 190.658 40.8161 190.754 40.6288L191.66 38.8769C191.757 38.6895 191.986 38.6171 192.174 38.7136C192.361 38.8102 192.434 39.0401 192.337 39.2275L191.43 40.9794C191.363 41.1104 191.23 41.1851 191.092 41.1851Z" fill="black"/>
  <path d="M191.437 37.6667C191.378 37.6667 191.318 37.6529 191.262 37.6242L189.51 36.7184C189.323 36.6218 189.25 36.3919 189.347 36.2045C189.444 36.0171 189.673 35.9447 189.861 36.0413L191.613 36.9471C191.8 37.0437 191.872 37.2736 191.776 37.461C191.707 37.592 191.575 37.6667 191.437 37.6667Z" fill="black"/>
  <path d="M195.516 39.778C195.458 39.778 195.398 39.7643 195.342 39.7355L193.59 38.8297C193.402 38.7331 193.33 38.5032 193.427 38.3158C193.523 38.1285 193.754 38.056 193.94 38.1526L195.692 39.0584C195.88 39.155 195.952 39.3849 195.856 39.5723C195.788 39.7033 195.654 39.778 195.516 39.778Z" fill="black"/>
  <path d="M187.202 184.171C187.1 184.171 186.996 184.129 186.921 184.048C186.779 183.892 186.788 183.651 186.943 183.509C194.007 176.998 199.408 169.183 202.994 160.281C203.072 160.086 203.294 159.99 203.491 160.069C203.686 160.148 203.78 160.371 203.702 160.566C200.073 169.574 194.609 177.481 187.46 184.069C187.387 184.137 187.295 184.171 187.202 184.171Z" fill="black"/>
  <path d="M164.626 197.288C164.501 197.288 164.377 197.226 164.304 197.112C164.192 196.935 164.243 196.698 164.42 196.585C164.658 196.434 188.274 181.199 197.13 160.615C197.213 160.422 197.437 160.332 197.632 160.415C197.825 160.498 197.914 160.723 197.832 160.916C188.882 181.718 165.071 197.076 164.832 197.228C164.767 197.269 164.696 197.288 164.626 197.288Z" fill="black"/>
  <path d="M178.887 24.1958C178.787 24.1958 178.687 24.1567 178.611 24.0785C171.971 17.1457 164.145 11.6302 155.979 8.12869C155.786 8.04593 155.696 7.82177 155.779 7.62749C155.862 7.43322 156.086 7.34471 156.28 7.42748C164.539 10.9692 172.453 16.5445 179.162 23.552C179.308 23.7038 179.302 23.9452 179.15 24.0912C179.077 24.1613 178.981 24.1958 178.887 24.1958Z" fill="black"/>
  <path d="M186.436 27.4346C186.318 27.4346 186.202 27.3794 186.127 27.2771C178.008 16.0852 166.614 7.60048 152.259 2.05856C152.063 1.9827 151.965 1.76198 152.041 1.56541C152.117 1.36884 152.337 1.27113 152.534 1.347C167.029 6.94295 178.539 15.5162 186.744 26.8288C186.868 26.9989 186.83 27.238 186.659 27.361C186.591 27.4116 186.513 27.4346 186.436 27.4346Z" fill="black"/>
  <path d="M11.1218 182.386C10.3884 182.386 9.66306 182.059 9.18256 181.435C8.36064 180.367 8.56066 178.83 9.62858 178.008C10.6965 177.186 12.2334 177.386 13.0553 178.454C13.8773 179.522 13.6772 181.059 12.6093 181.881C12.1668 182.221 11.6426 182.386 11.1218 182.386ZM10.0941 178.611C9.35959 179.177 9.22164 180.234 9.78722 180.969C10.3528 181.704 11.4104 181.841 12.1449 181.276C12.8795 180.71 13.0163 179.653 12.4518 178.918C11.8863 178.184 10.8287 178.045 10.0941 178.611Z" fill="black"/>
</svg>
