<svg width="86" height="21" viewBox="0 0 86 21" fill="none" xmlns="http://www.w3.org/2000/svg">
  <g clip-path="url(#clip0_0_2223)">
    <path d="M21.9207 6.46522C21.2345 5.02561 19.9335 4.09568 17.973 4.09568C17.3713 4.10617 16.78 4.25476 16.2447 4.5299C15.7095 4.80509 15.2446 5.19953 14.886 5.68281L14.8144 5.76998V0.127831C14.8144 0.0952229 14.8015 0.0639527 14.7784 0.040896C14.7553 0.0178386 14.724 0.00488281 14.6914 0.00488281H11.9195C11.8873 0.00546872 11.8566 0.0186795 11.8341 0.0416733C11.8115 0.0646672 11.7988 0.0956066 11.7988 0.127831V16.3122C11.7988 16.3442 11.8116 16.3749 11.8342 16.3975C11.8568 16.4202 11.8875 16.4329 11.9195 16.4329H14.8882C14.9204 16.4329 14.9513 16.4203 14.9743 16.3976C14.9973 16.3751 15.0105 16.3444 15.0111 16.3122V9.41148C15.0111 8.07024 15.9053 7.12018 17.3359 7.12018C18.9007 7.12018 19.2964 8.40778 19.2964 9.71994V16.3122C19.2964 16.3442 19.3091 16.3749 19.3317 16.3975C19.3544 16.4202 19.3851 16.4329 19.4171 16.4329H22.3789C22.4113 16.4329 22.4422 16.4203 22.4652 16.3976C22.4882 16.3751 22.5014 16.3444 22.502 16.3122V9.32653C22.502 9.08734 22.502 8.85261 22.4707 8.62461C22.4198 7.87743 22.2335 7.1457 21.9207 6.46522Z" fill="white"/>
    <path d="M7.0975 8.86383C7.0975 8.86383 5.58636 8.50839 5.02975 8.36533C4.47312 8.22227 3.50071 7.91825 3.50071 7.1828C3.50071 6.44734 4.28534 6.21261 5.08116 6.21261C5.87697 6.21261 6.7622 6.40487 6.83149 7.28786C6.83429 7.31969 6.84893 7.34927 6.87252 7.37083C6.89612 7.39236 6.92695 7.40421 6.9589 7.40411L9.88504 7.39293C9.90226 7.39297 9.91931 7.38946 9.93511 7.38262C9.9509 7.37579 9.96511 7.36576 9.97687 7.35315C9.98862 7.34058 9.99766 7.3257 10.0034 7.30947C10.0091 7.29321 10.0115 7.27597 10.0102 7.25879C9.82917 4.43325 7.35009 3.42285 5.06327 3.42285C2.35171 3.42285 0.368919 5.21117 0.368919 7.1828C0.368919 8.6224 0.775763 9.9726 3.97462 10.9115C4.53571 11.0746 5.298 11.287 5.96416 11.4726C6.76442 11.6961 7.19585 12.0336 7.19585 12.5657C7.19585 13.1826 6.30169 13.6118 5.42318 13.6118C4.15124 13.6118 3.24813 13.1402 3.17435 12.2929C3.17051 12.2619 3.15543 12.2334 3.13192 12.2128C3.10843 12.1922 3.07819 12.1809 3.04693 12.1811L0.127495 12.1946C0.110379 12.1946 0.0934391 12.198 0.0776812 12.2047C0.0619235 12.2114 0.0476733 12.2211 0.0357809 12.2335C0.0238888 12.2458 0.0145966 12.2604 0.00846262 12.2763C0.00232868 12.2923 -0.000522068 12.3094 7.84871e-05 12.3265C0.134203 14.9933 2.70939 16.4307 5.11024 16.4307C8.68689 16.4307 10.3031 14.4188 10.3031 12.5344C10.3075 11.6491 10.1041 9.6328 7.0975 8.86383Z" fill="white"/>
    <path d="M44.7412 4.09135C43.2549 4.09135 42.0096 4.91397 41.2071 5.90653V4.2076C41.2071 4.17597 41.1946 4.14558 41.1724 4.12303C41.1506 4.10045 41.1202 4.08747 41.0885 4.08691H38.3123C38.2804 4.08691 38.2495 4.0996 38.2269 4.12223C38.2043 4.14489 38.1914 4.17561 38.1914 4.2076V20.079C38.1922 20.1105 38.2053 20.1408 38.2279 20.1628C38.2505 20.185 38.2808 20.1975 38.3123 20.1975H41.2832C41.3145 20.1975 41.3446 20.185 41.3668 20.1628C41.389 20.1406 41.4015 20.1103 41.4015 20.079V14.8615H41.4463C41.9178 15.5813 43.2077 16.4442 44.8934 16.4442C48.0629 16.4442 50.7053 13.8154 50.7053 10.2633C50.7077 6.85434 48.0787 4.09135 44.7412 4.09135ZM44.4663 13.4197C43.8408 13.4353 43.2242 13.264 42.6964 12.9278C42.1685 12.5916 41.7525 12.1057 41.5018 11.5321C41.2513 10.9585 41.1771 10.3232 41.2893 9.70739C41.4011 9.09153 41.6942 8.52303 42.1307 8.07443C42.5673 7.62578 43.1276 7.31742 43.7403 7.18867C44.3527 7.05991 44.9898 7.11658 45.5699 7.35147C46.1502 7.58634 46.6471 7.98879 46.9977 8.50743C47.3482 9.02608 47.5361 9.63736 47.5378 10.2633C47.5442 10.6725 47.4697 11.0789 47.3188 11.4593C47.168 11.8396 46.9432 12.1864 46.6578 12.4797C46.3726 12.7729 46.0321 13.007 45.6557 13.1683C45.2797 13.3296 44.8756 13.415 44.4663 13.4197Z" fill="white"/>
    <path d="M29.4005 3.39355C26.6308 3.39355 25.2493 4.33466 24.1404 5.08801L24.1069 5.11035C24.0498 5.14947 24.0095 5.20877 23.9941 5.27632C23.9788 5.34389 23.9895 5.41473 24.0242 5.47472L25.1195 7.36137C25.1401 7.39669 25.1682 7.42704 25.2017 7.45021C25.2354 7.4734 25.2737 7.48888 25.3141 7.49552C25.3536 7.50263 25.394 7.50091 25.4326 7.49046C25.4713 7.48002 25.5072 7.46117 25.5377 7.43514L25.6247 7.36363C26.1947 6.88525 27.109 6.24591 29.3222 6.07155C30.5538 5.97322 31.618 6.2951 32.4024 7.02831C33.2654 7.82414 33.7819 9.10948 33.7819 10.4664C33.7819 12.9633 32.3109 14.5326 29.9481 14.5639C28.0009 14.5527 26.6932 13.5378 26.6932 12.0379C26.6932 11.242 27.0531 10.7234 27.7552 10.2048C27.8087 10.1665 27.8465 10.1101 27.8618 10.046C27.8771 9.98187 27.8686 9.91442 27.8378 9.85611L26.8541 7.99624C26.8361 7.96296 26.8115 7.93358 26.782 7.9098C26.7525 7.88602 26.7186 7.8683 26.6821 7.85765C26.6448 7.84657 26.6058 7.84344 26.5674 7.84842C26.5287 7.85343 26.4916 7.86647 26.4585 7.88673C25.3544 8.54169 23.9996 9.73987 24.0734 12.0423C24.1628 14.973 26.5995 17.2106 29.7669 17.3022H29.9257H30.1425C33.9068 17.1793 36.6251 14.385 36.6251 10.596C36.6251 7.11772 34.0901 3.39355 29.4005 3.39355Z" fill="white"/>
    <path d="M62.4126 5.18262H60.5257C60.4817 5.18319 60.4393 5.20105 60.4079 5.23235C60.3764 5.26366 60.3586 5.30598 60.3584 5.35028V9.30916C60.3586 9.35326 60.3766 9.3953 60.4081 9.42626C60.4395 9.45721 60.4817 9.4746 60.5257 9.4746H62.4126C63.5615 9.4746 64.4089 8.56925 64.4089 7.3286C64.4089 6.08795 63.5615 5.18262 62.4126 5.18262Z" fill="white"/>
    <path d="M68.209 12.1858C68.209 12.7603 68.694 13.08 69.5389 13.08C70.6879 13.08 71.3673 12.4585 71.3673 11.3565V11.0391L69.6464 11.1285C68.7386 11.1732 68.209 11.551 68.209 12.1858Z" fill="white"/>
    <path d="M82.1806 0.0410354H56.8311C56.4155 0.041035 56.0034 0.122984 55.6195 0.282196C55.2352 0.441408 54.8862 0.674766 54.5924 0.96893C54.2983 1.2631 54.0652 1.61231 53.9062 1.99661C53.7471 2.3809 53.6656 2.79275 53.666 3.20861V17.086C53.666 17.9257 53.9994 18.7311 54.593 19.325C55.1866 19.919 55.9917 20.253 56.8311 20.2535H82.1806C82.5971 20.2547 83.0097 20.1739 83.3948 20.0155C83.7797 19.8571 84.1298 19.6243 84.4249 19.3306C84.7196 19.0368 84.9541 18.6877 85.1142 18.3033C85.2742 17.919 85.3566 17.5068 85.3574 17.0905V3.21307C85.358 2.7959 85.2766 2.38264 85.1172 1.9971C84.9579 1.61156 84.7238 1.26133 84.4287 0.966542C84.1335 0.671757 83.7829 0.438235 83.3972 0.279403C83.0115 0.120571 82.5981 0.0395612 82.1806 0.0410354ZM62.509 11.0325H60.5151C60.4707 11.0325 60.4283 11.0502 60.3966 11.0816C60.3653 11.1131 60.3474 11.1557 60.3474 11.2002V14.0391C60.3474 14.0836 60.3298 14.1263 60.2985 14.1577C60.267 14.1891 60.2243 14.2068 60.1799 14.2068H58.7759C58.7319 14.2062 58.6893 14.1884 58.6579 14.157C58.6266 14.1258 58.6092 14.0834 58.6084 14.0391V3.79874C58.6084 3.75431 58.626 3.71165 58.6577 3.6802C58.6891 3.64876 58.7315 3.6311 58.7759 3.6311H62.509C64.6238 3.6311 66.1371 5.1713 66.1371 7.33293C66.1371 9.49457 64.6349 11.037 62.5205 11.037L62.509 11.0325ZM73.0156 14.0369C73.0159 14.0591 73.012 14.0811 73.0035 14.1018C72.9951 14.1223 72.9828 14.1411 72.9674 14.1569C72.9515 14.1727 72.9331 14.1853 72.9125 14.1938C72.8923 14.2024 72.8701 14.2068 72.8479 14.2068H71.5223C71.5001 14.2068 71.4781 14.2024 71.4577 14.1938C71.4371 14.1853 71.4184 14.1727 71.403 14.1569C71.3875 14.1411 71.375 14.1223 71.3669 14.1018C71.3586 14.0811 71.3544 14.0591 71.3548 14.0369V13.7307C71.3568 13.7038 71.3505 13.6769 71.336 13.6541C71.3219 13.6312 71.3007 13.6135 71.2753 13.6037C71.2504 13.5939 71.2228 13.5925 71.1968 13.5997C71.1705 13.6068 71.1477 13.6222 71.1312 13.6435C70.7354 14.0749 70.0917 14.3879 69.0656 14.3879C67.5547 14.3879 66.5551 13.601 66.5551 12.2419C66.5407 11.9105 66.609 11.5807 66.7543 11.2824C66.8994 10.9842 67.117 10.7269 67.387 10.534C67.9322 10.125 68.7772 9.9126 70.0312 9.86341L71.3612 9.81871V9.42972C71.3612 8.64509 70.8337 8.31204 69.9864 8.31204C69.1393 8.31204 68.6049 8.61158 68.4801 9.10114C68.47 9.13571 68.4488 9.16595 68.4194 9.18702C68.3905 9.20811 68.355 9.21877 68.3189 9.21737H67.0068C66.9827 9.21798 66.9587 9.21326 66.9365 9.20363C66.9147 9.19396 66.8947 9.17957 66.8786 9.16145C66.8627 9.14332 66.8509 9.12197 66.8441 9.09878C66.8372 9.07561 66.8354 9.05125 66.8392 9.02737C67.036 7.86495 67.9971 6.98196 70.0471 6.98196C72.2243 6.98196 73.0088 7.99461 73.0088 9.92822L73.0156 14.0369ZM81.2733 7.39327L78.3226 15.2642C77.6519 17.0927 76.4782 17.5622 75.1928 17.5622C74.9508 17.5681 74.709 17.5387 74.4753 17.475C74.4388 17.4652 74.4069 17.4437 74.3835 17.4138C74.3608 17.3839 74.3483 17.3473 74.3479 17.3095V16.1136C74.3479 16.0886 74.3532 16.0638 74.3637 16.0412C74.3744 16.0185 74.3897 15.9984 74.4089 15.9824C74.4283 15.9664 74.4507 15.9548 74.4749 15.9485C74.4991 15.9422 74.5245 15.9413 74.549 15.9459C74.7518 15.9844 74.9575 16.0038 75.1639 16.0041C75.5192 16.0219 75.8705 15.9199 76.1612 15.7144C76.4516 15.5089 76.6649 15.2118 76.7665 14.8707L76.8539 14.5958C76.8674 14.559 76.8674 14.5186 76.8539 14.4817L74.0952 7.39553C74.0868 7.3702 74.0845 7.3432 74.0884 7.3168C74.0926 7.29038 74.1027 7.26527 74.1178 7.24351C74.1334 7.22174 74.1538 7.20392 74.1774 7.19148C74.201 7.17905 74.2274 7.17235 74.2539 7.17197H75.5954C75.6296 7.17231 75.6629 7.1829 75.6913 7.20244C75.7196 7.22194 75.7414 7.24949 75.7539 7.28152L77.6273 12.2799C77.6398 12.3125 77.6616 12.3407 77.6904 12.3605C77.7193 12.3804 77.7532 12.391 77.7883 12.391C77.823 12.391 77.8574 12.3804 77.886 12.3605C77.9147 12.3407 77.9369 12.3125 77.949 12.2799L79.5745 7.29494C79.5852 7.26095 79.6068 7.23134 79.6357 7.21042C79.6647 7.1895 79.6993 7.17838 79.735 7.17869H81.1101C81.1365 7.17857 81.1627 7.18476 81.1867 7.19661C81.2102 7.2085 81.2311 7.22579 81.2469 7.24709C81.2628 7.2684 81.2733 7.29312 81.2778 7.3193C81.2826 7.34544 81.281 7.37232 81.2733 7.39775V7.39327Z" fill="white"/>
  </g>
  <defs>
    <clipPath id="clip0_0_2223">
      <rect width="85.5641" height="20.5536" fill="white"/>
    </clipPath>
  </defs>
</svg>
