<svg width="40" height="24" viewBox="0 0 40 24" fill="none" xmlns="http://www.w3.org/2000/svg">
  <rect x="0.5" y="0.5" width="39" height="23" rx="4.04936" fill="white" stroke="#D6D8EA"/>
  <g clip-path="url(#clip0_0_8769)">
    <path d="M30 17.5157C30 19.3966 28.6064 20.9282 26.8949 20.9282H10V7.41251C10 5.5316 11.3936 4 13.1051 4H30V17.5157Z" fill="white"/>
    <path d="M24.4988 14.0495H25.7824C25.8191 14.0495 25.9046 14.0361 25.9413 14.0361C26.1858 13.9824 26.3936 13.7405 26.3936 13.4046C26.3936 13.0822 26.1858 12.8404 25.9413 12.7732C25.9046 12.7598 25.8313 12.7598 25.7824 12.7598H24.4988V14.0495Z" fill="url(#paint0_linear_0_8769)"/>
    <path d="M25.6356 5.14062C24.4131 5.14062 23.4107 6.22887 23.4107 7.58581V10.125H26.5525C26.6258 10.125 26.7114 10.125 26.7725 10.1385C27.4816 10.1788 28.0072 10.5818 28.0072 11.2805C28.0072 11.8313 27.6527 12.3015 26.9926 12.3956V12.4224C27.7138 12.4762 28.264 12.9195 28.264 13.6047C28.264 14.3437 27.6527 14.8273 26.8459 14.8273H23.3984V19.7983H26.6625C27.885 19.7983 28.8874 18.7101 28.8874 17.3531V5.14062H25.6356Z" fill="url(#paint1_linear_0_8769)"/>
    <path d="M26.235 11.4427C26.235 11.1203 26.0271 10.9053 25.7826 10.865C25.7582 10.865 25.6971 10.8516 25.6604 10.8516H24.499V12.0338H25.6604C25.6971 12.0338 25.7704 12.0338 25.7826 12.0204C26.0271 11.9801 26.235 11.7651 26.235 11.4427Z" fill="url(#paint2_linear_0_8769)"/>
    <path d="M13.3377 5.14062C12.1153 5.14062 11.1128 6.22887 11.1128 7.58581V13.6182C11.7363 13.954 12.3842 14.169 13.0321 14.169C13.8023 14.169 14.2179 13.6585 14.2179 12.9598V10.1116H16.125V12.9464C16.125 14.0481 15.5016 14.9482 13.3866 14.9482C12.103 14.9482 11.1006 14.6392 11.1006 14.6392V19.7849H14.3646C15.5871 19.7849 16.5896 18.6966 16.5896 17.3397V5.14062H13.3377Z" fill="url(#paint3_linear_0_8769)"/>
    <path d="M19.4867 5.14062C18.2642 5.14062 17.2617 6.22887 17.2617 7.58581V10.7834C17.8241 10.2594 18.8021 9.92351 20.3791 10.0041C21.2226 10.0444 22.1272 10.2997 22.1272 10.2997V11.3342C21.6749 11.0789 21.137 10.8505 20.4402 10.7968C19.2422 10.7027 18.5209 11.3476 18.5209 12.4762C18.5209 13.6182 19.2422 14.263 20.4402 14.1556C21.137 14.1018 21.6749 13.86 22.1272 13.6182V14.6527C22.1272 14.6527 21.2348 14.9079 20.3791 14.9482C18.8021 15.0288 17.8241 14.693 17.2617 14.169V19.8117H20.5258C21.7483 19.8117 22.7507 18.7235 22.7507 17.3665V5.14062H19.4867Z" fill="url(#paint4_linear_0_8769)"/>
  </g>
  <defs>
    <linearGradient id="paint0_linear_0_8769" x1="23.4087" y1="13.4063" x2="28.9023" y2="13.4063" gradientUnits="userSpaceOnUse">
      <stop stop-color="#007940"/>
      <stop offset="0.2285" stop-color="#00873F"/>
      <stop offset="0.7433" stop-color="#40A737"/>
      <stop offset="1" stop-color="#5CB531"/>
    </linearGradient>
    <linearGradient id="paint1_linear_0_8769" x1="23.4085" y1="12.4636" x2="28.9024" y2="12.4636" gradientUnits="userSpaceOnUse">
      <stop stop-color="#007940"/>
      <stop offset="0.2285" stop-color="#00873F"/>
      <stop offset="0.7433" stop-color="#40A737"/>
      <stop offset="1" stop-color="#5CB531"/>
    </linearGradient>
    <linearGradient id="paint2_linear_0_8769" x1="23.4088" y1="11.441" x2="28.9026" y2="11.441" gradientUnits="userSpaceOnUse">
      <stop stop-color="#007940"/>
      <stop offset="0.2285" stop-color="#00873F"/>
      <stop offset="0.7433" stop-color="#40A737"/>
      <stop offset="1" stop-color="#5CB531"/>
    </linearGradient>
    <linearGradient id="paint3_linear_0_8769" x1="11.1102" y1="12.4636" x2="16.6888" y2="12.4636" gradientUnits="userSpaceOnUse">
      <stop stop-color="#1F286F"/>
      <stop offset="0.4751" stop-color="#004E94"/>
      <stop offset="0.8261" stop-color="#0066B1"/>
      <stop offset="1" stop-color="#006FBC"/>
    </linearGradient>
    <linearGradient id="paint4_linear_0_8769" x1="17.2301" y1="12.4636" x2="22.6482" y2="12.4636" gradientUnits="userSpaceOnUse">
      <stop stop-color="#6C2C2F"/>
      <stop offset="0.1735" stop-color="#882730"/>
      <stop offset="0.5731" stop-color="#BE1833"/>
      <stop offset="0.8585" stop-color="#DC0436"/>
      <stop offset="1" stop-color="#E60039"/>
    </linearGradient>
    <clipPath id="clip0_0_8769">
      <rect width="20" height="17" fill="white" transform="translate(10 4)"/>
    </clipPath>
  </defs>
</svg>
